<?xml version="1.0" encoding="UTF-8" standalone="no"?>
<!-- Created with Inkscape (http://www.inkscape.org/) -->

<svg
   xmlns:dc="http://purl.org/dc/elements/1.1/"
   xmlns:cc="http://creativecommons.org/ns#"
   xmlns:rdf="http://www.w3.org/1999/02/22-rdf-syntax-ns#"
   xmlns:svg="http://www.w3.org/2000/svg"
   xmlns="http://www.w3.org/2000/svg"
   version="1.1"
   width="16"
   height="16"
   viewBox="0 0 135.41896 135.41896"
   id="Layer_1"
   xml:space="preserve"><metadata
   id="metadata9"><rdf:RDF><cc:Work
       rdf:about=""><dc:format>image/svg+xml</dc:format><dc:type
         rdf:resource="http://purl.org/dc/dcmitype/StillImage" /><dc:title></dc:title></cc:Work></rdf:RDF></metadata><defs
   id="defs7" />

<g
   id="g3003"><path fill="#c5c5c5"
     d="M 68.6 96.5 L 87 78.1 c 1.6 -1.6 1.6 -4.1 0 -5.7 c -1.6 -1.6 -4.1 -1.6 -5.7 0 L 62.9 90.9 L 44.5 72.5 L 62.9 54.1 c 1.6 -1.6 1.6 -4.1 0 -5.7 c -1.6 -1.6 -4.1 -1.6 -5.7 0 L 38.9 66.8 L 32.5 60.5 L 21.2 71.8 C 11 82 9.7 97.9 17.4 109.5 L 0 126.9 L 8.5 135.4 L 25.9 118 c 11.6 7.7 27.5 6.4 37.8 -3.8 l 11.3 -11.3 l -6.4 -6.4 z"
     id="path3" /><path fill="#c5c5c5"
     d="M 102.9 75 l 11.3 -11.3 c 10.3 -10.3 11.5 -26.1 3.8 -37.8 L 135.4 8.5 L 126.9 0 L 109.5 17.4 C 97.9 9.7 82 11 71.8 21.2 l -11.3 11.3 c 41.5 41.5 0.3 0.3 42.4 42.4 z"
     id="path3-7" /></g></svg>